<svg width="13" height="13" viewBox="0 0 13 13" fill="none" xmlns="http://www.w3.org/2000/svg">
<path d="M11.8352 0.521112C12.0305 0.716374 12.0305 1.03296 11.8352 1.22822L6.88545 6.17797L11.8352 11.1277C12.0305 11.323 12.0305 11.6396 11.8352 11.8348C11.6399 12.0301 11.3234 12.0301 11.1281 11.8348L6.17834 6.88507L1.2286 11.8348C1.03334 12.0301 0.716753 12.0301 0.521491 11.8348C0.326229 11.6396 0.326229 11.323 0.521491 11.1277L5.47124 6.17797L0.521491 1.22822C0.326228 1.03296 0.326229 0.716374 0.521491 0.521112C0.716753 0.32585 1.03334 0.32585 1.2286 0.521112L6.17834 5.47086L11.1281 0.521112C11.3234 0.32585 11.6399 0.32585 11.8352 0.521112Z" fill="black"/>
<path d="M11.8352 0.521112L12.1004 0.255947L11.8352 0.521112ZM6.88545 6.17797L6.62029 5.9128L6.35512 6.17797L6.62029 6.44313L6.88545 6.17797ZM6.17834 6.88507L6.44351 6.61991L6.17834 6.35474L5.91318 6.61991L6.17834 6.88507ZM5.47124 6.17797L5.7364 6.44313L6.00157 6.17797L5.7364 5.9128L5.47124 6.17797ZM6.17834 5.47086L5.91318 5.73602L6.17834 6.00119L6.44351 5.73602L6.17834 5.47086ZM11.8352 0.521112L11.57 0.786277C11.6188 0.835092 11.6188 0.914238 11.57 0.963054L11.8352 1.22822L12.1004 1.49338C12.4421 1.15168 12.4421 0.597656 12.1004 0.255947L11.8352 0.521112ZM11.8352 1.22822L11.57 0.963054L6.62029 5.9128L6.88545 6.17797L7.15062 6.44313L12.1004 1.49338L11.8352 1.22822ZM6.88545 6.17797L6.62029 6.44313L11.57 11.3929L11.8352 11.1277L12.1004 10.8625L7.15062 5.9128L6.88545 6.17797ZM11.8352 11.1277L11.57 11.3929C11.6188 11.4417 11.6188 11.5208 11.57 11.5697L11.8352 11.8348L12.1004 12.1C12.4421 11.7583 12.4421 11.2043 12.1004 10.8625L11.8352 11.1277ZM11.8352 11.8348L11.57 11.5697C11.5212 11.6185 11.4421 11.6185 11.3933 11.5697L11.1281 11.8348L10.8629 12.1C11.2046 12.4417 11.7587 12.4417 12.1004 12.1L11.8352 11.8348ZM11.1281 11.8348L11.3933 11.5697L6.44351 6.61991L6.17834 6.88507L5.91318 7.15024L10.8629 12.1L11.1281 11.8348ZM6.17834 6.88507L5.91318 6.61991L0.963432 11.5697L1.2286 11.8348L1.49376 12.1L6.44351 7.15024L6.17834 6.88507ZM1.2286 11.8348L0.963432 11.5697C0.914617 11.6185 0.835471 11.6185 0.786656 11.5697L0.521491 11.8348L0.256326 12.1C0.598034 12.4417 1.15205 12.4417 1.49376 12.1L1.2286 11.8348ZM0.521491 11.8348L0.786656 11.5697C0.73784 11.5208 0.73784 11.4417 0.786656 11.3929L0.521491 11.1277L0.256326 10.8625C-0.0853829 11.2043 -0.0853832 11.7583 0.256326 12.1L0.521491 11.8348ZM0.521491 11.1277L0.786656 11.3929L5.7364 6.44313L5.47124 6.17797L5.20607 5.9128L0.256326 10.8625L0.521491 11.1277ZM5.47124 6.17797L5.7364 5.9128L0.786656 0.963054L0.521491 1.22822L0.256326 1.49338L5.20607 6.44313L5.47124 6.17797ZM0.521491 1.22822L0.786656 0.963054C0.73784 0.914238 0.73784 0.835092 0.786656 0.786277L0.521491 0.521112L0.256326 0.255947C-0.0853829 0.597655 -0.0853832 1.15168 0.256326 1.49338L0.521491 1.22822ZM0.521491 0.521112L0.786656 0.786277C0.835471 0.737462 0.914617 0.737461 0.963432 0.786277L1.2286 0.521112L1.49376 0.255947C1.15205 -0.0857618 0.598034 -0.0857618 0.256326 0.255947L0.521491 0.521112ZM1.2286 0.521112L0.963432 0.786277L5.91318 5.73602L6.17834 5.47086L6.44351 5.20569L1.49376 0.255947L1.2286 0.521112ZM6.17834 5.47086L6.44351 5.73602L11.3933 0.786277L11.1281 0.521112L10.8629 0.255947L5.91318 5.20569L6.17834 5.47086ZM11.1281 0.521112L11.3933 0.786277C11.4421 0.737462 11.5212 0.737462 11.57 0.786277L11.8352 0.521112L12.1004 0.255947C11.7587 -0.0857618 11.2046 -0.0857616 10.8629 0.255947L11.1281 0.521112Z" fill="black" fill-opacity="0.8"/>
</svg>
